<svg xmlns="http://www.w3.org/2000/svg" width="19" height="19.005" viewBox="0 0 19 19.005">
  <path id="Icon_ionic-ios-globe" data-name="Icon ionic-ios-globe" d="M12.873,3.375h-.032a9.5,9.5,0,0,0,0,19h.032a9.5,9.5,0,0,0,0-19ZM21.1,12.238H17.558a18,18,0,0,0-.447-3.481A13.907,13.907,0,0,0,19.38,7.8,8.187,8.187,0,0,1,21.1,12.238Zm-8.868,0H9.412a16.245,16.245,0,0,1,.4-3.157,13.886,13.886,0,0,0,2.42.324Zm0,1.279v2.828a13.945,13.945,0,0,0-2.42.324,16.243,16.243,0,0,1-.4-3.152Zm1.279,0h2.8a16.15,16.15,0,0,1-.4,3.148,13.624,13.624,0,0,0-2.4-.32Zm0-1.279V9.405a13.945,13.945,0,0,0,2.4-.32,16.2,16.2,0,0,1,.4,3.152Zm5-5.386a12.682,12.682,0,0,1-1.735.708,9.434,9.434,0,0,0-1.21-2.49A8.262,8.262,0,0,1,18.507,6.852ZM15.567,7.889a12.845,12.845,0,0,1-2.055.274V4.809A5.536,5.536,0,0,1,15.567,7.889Zm-3.333-3.1V8.158a12.624,12.624,0,0,1-2.078-.279A5.533,5.533,0,0,1,12.233,4.791Zm-2.082.292a9.509,9.509,0,0,0-1.2,2.471,12.967,12.967,0,0,1-1.712-.7A8.138,8.138,0,0,1,10.151,5.084ZM6.366,7.8a13.631,13.631,0,0,0,2.247.95,17.273,17.273,0,0,0-.447,3.481H4.649A8.145,8.145,0,0,1,6.366,7.8ZM4.644,13.517H8.16A17.952,17.952,0,0,0,8.608,17a14.463,14.463,0,0,0-2.247.95A8.188,8.188,0,0,1,4.644,13.517ZM7.233,18.9a12.776,12.776,0,0,1,1.717-.7,9.543,9.543,0,0,0,1.2,2.476A8.341,8.341,0,0,1,7.233,18.9Zm2.922-1.032a12.69,12.69,0,0,1,2.078-.279v3.371A5.524,5.524,0,0,1,10.156,17.87Zm3.356,3.075V17.587a12.845,12.845,0,0,1,2.055.274A5.533,5.533,0,0,1,13.512,20.945Zm2.055-.26a9.434,9.434,0,0,0,1.21-2.49,12.473,12.473,0,0,1,1.735.713A8.357,8.357,0,0,1,15.567,20.685Zm3.813-2.732a13.907,13.907,0,0,0-2.269-.959,17.9,17.9,0,0,0,.447-3.477H21.1A8.151,8.151,0,0,1,19.38,17.953Z" transform="translate(-3.375 -3.375)" fill="#505050"/>
</svg>
