<svg width="513" height="512" viewBox="0 0 513 512" fill="none"
    xmlns="http://www.w3.org/2000/svg">
    <path d="M256.5 448C250.077 447.992 243.805 446.051 238.5 442.43C159.91 389.08 125.88 352.5 107.11 329.63C67.11 280.88 47.96 230.83 48.5 176.63C49.13 114.52 98.96 64 159.58 64C203.66 64 234.19 88.83 251.97 109.51C252.533 110.158 253.229 110.679 254.011 111.035C254.792 111.391 255.641 111.576 256.5 111.576C257.359 111.576 258.208 111.391 258.989 111.035C259.771 110.679 260.467 110.158 261.03 109.51C278.81 88.81 309.34 64 353.42 64C414.04 64 463.87 114.52 464.5 176.64C465.04 230.85 445.87 280.9 405.89 329.64C387.12 352.51 353.09 389.09 274.5 442.44C269.194 446.058 262.922 447.995 256.5 448V448Z" fill="#505050"/>
</svg>
